<svg xmlns="http://www.w3.org/2000/svg" viewBox="0 0 700 300" width="700" height="300">
  <defs>
    <linearGradient id="bg" x1="0%" y1="0%" x2="100%" y2="100%">
      <stop offset="0%" style="stop-color:#dc2626"/>
      <stop offset="100%" style="stop-color:#991b1b"/>
    </linearGradient>
    <linearGradient id="cam" x1="0%" y1="0%" x2="0%" y2="100%">
      <stop offset="0%" style="stop-color:#f87171"/>
      <stop offset="100%" style="stop-color:#ef4444"/>
    </linearGradient>
    <linearGradient id="shield" x1="0%" y1="0%" x2="0%" y2="100%">
      <stop offset="0%" style="stop-color:#fca5a5"/>
      <stop offset="100%" style="stop-color:#f87171"/>
    </linearGradient>
  </defs>
  <rect width="700" height="300" fill="url(#bg)"/>
  <path d="M350 50 L550 120 L550 220 L350 270 L150 220 L150 120 Z" fill="url(#shield)" opacity="0.4" stroke="#fecaca" stroke-width="2"/>
  <rect x="260" y="100" width="180" height="120" rx="12" fill="url(#cam)"/>
  <circle cx="350" cy="155" r="35" fill="#1f2937"/>
  <circle cx="350" cy="155" r="22" fill="#4b5563"/>
  <rect x="255" y="225" width="190" height="25" rx="4" fill="#374151"/>
  <rect x="300" y="75" width="100" height="30" rx="4" fill="#374151"/>
  <path d="M200 160 L240 160 M200 180 L230 180 M200 200 L220 200" stroke="#fca5a5" stroke-width="4" stroke-linecap="round"/>
  <text x="200" y="250" fill="#fecaca" font-family="system-ui,sans-serif" font-size="14" font-weight="600">SAFETY " EMERGENCY</text>
</svg>
